HIERARCHY
ROOT Hips
{
  OFFSET 5.80788e-005 67.184 3.4734
  CHANNELS 6 Xposition Yposition Zposition Zrotation Xrotation Yrotation
  JOINT Chest
  {
    OFFSET 0 8.7983 -4.7612
    CHANNELS 3 Zrotation Xrotation Yrotation
    JOINT Chest2
    {
      OFFSET 0 8.0291 0.4195
      CHANNELS 3 Zrotation Xrotation Yrotation
      JOINT Chest3
      {
        OFFSET 0 9.9351 -2.2114
        CHANNELS 3 Zrotation Xrotation Yrotation
        JOINT Neck
        {
          OFFSET 0 22.3885 -0.4656
          CHANNELS 3 Zrotation Xrotation Yrotation
          JOINT Head
          {
            OFFSET -0.0001 12.643 3.4389
            CHANNELS 3 Zrotation Xrotation Yrotation
            End Site
            {
              OFFSET 0.0001 17.6655 0.5274
            }
          }
        }
        JOINT LeftCollar
        {
          OFFSET 2.2603 21.606 7.4023
          CHANNELS 3 Zrotation Xrotation Yrotation
          JOINT LeftShoulder
          {
            OFFSET 13.5163 -1.1332 -5.0146
            CHANNELS 3 Zrotation Xrotation Yrotation
            JOINT LeftElbow
            {
              OFFSET -0.0995 -28.05 -0.2431
              CHANNELS 3 Zrotation Xrotation Yrotation
              JOINT LeftWrist
              {
                OFFSET 0.0679 -23.3996 -0.1402
                CHANNELS 3 Zrotation Xrotation Yrotation
                JOINT LeftFinger1
                {
                  OFFSET 0.7932 -9.069 2.5189
                  CHANNELS 3 Zrotation Xrotation Yrotation
                  JOINT LeftFinger11
                  {
                    OFFSET -0.8272 -3.3923 0.5977
                    CHANNELS 3 Zrotation Xrotation Yrotation
                    JOINT LeftFinger12
                    {
                      OFFSET -0.5649 -2.3158 0.4082
                      CHANNELS 3 Zrotation Xrotation Yrotation
                      End Site
                      {
                        OFFSET -0.4919 -1.6479 0.2673
                      }
                    }
                  }
                }
                JOINT LeftFinger2
                {
                  OFFSET 0.9159 -9.2044 0.2193
                  CHANNELS 3 Zrotation Xrotation Yrotation
                  JOINT LeftFinger21
                  {
                    OFFSET 0.0117 -4.1944 -0.0248
                    CHANNELS 3 Zrotation Xrotation Yrotation
                    JOINT LeftFinger22
                    {
                      OFFSET 0.0071 -2.3249 -0.0142
                      CHANNELS 3 Zrotation Xrotation Yrotation
                      End Site
                      {
                        OFFSET -0.1475 -2.0882 0.0028
                      }
                    }
                  }
                }
                JOINT LeftFinger3
                {
                  OFFSET 0.6113 -8.7231 -2.0637
                  CHANNELS 3 Zrotation Xrotation Yrotation
                  JOINT LeftFinger31
                  {
                    OFFSET -0.1927 -3.8059 -0.2383
                    CHANNELS 3 Zrotation Xrotation Yrotation
                    JOINT LeftFinger32
                    {
                      OFFSET -0.1091 -2.1688 -0.1362
                      CHANNELS 3 Zrotation Xrotation Yrotation
                      End Site
                      {
                        OFFSET -0.2358 -1.9176 -0.0906
                      }
                    }
                  }
                }
                JOINT LeftFinger4
                {
                  OFFSET -0.6151 -8.0947 -3.5641
                  CHANNELS 3 Zrotation Xrotation Yrotation
                  JOINT LeftFinger41
                  {
                    OFFSET -0.4882 -2.341 -0.6462
                    CHANNELS 3 Zrotation Xrotation Yrotation
                    JOINT LeftFinger42
                    {
                      OFFSET -0.3575 -1.7167 -0.4742
                      CHANNELS 3 Zrotation Xrotation Yrotation
                      End Site
                      {
                        OFFSET -0.4187 -1.5237 -0.3496
                      }
                    }
                  }
                }
                JOINT LeftFinger0
                {
                  OFFSET -1.42 -1.8761 1.4223
                  CHANNELS 3 Zrotation Xrotation Yrotation
                  JOINT LeftFinger01
                  {
                    OFFSET -1.1471 -3.4929 2.6334
                    CHANNELS 3 Zrotation Xrotation Yrotation
                    JOINT LeftFinger02
                    {
                      OFFSET -0.823 -2.3 1.6571
                      CHANNELS 3 Zrotation Xrotation Yrotation
                      End Site
                      {
                        OFFSET -0.5822 -1.6914 1.1582
                      }
                    }
                  }
                }
              }
            }
          }
        }
        JOINT RightCollar
        {
          OFFSET -2.2603 21.606 7.4023
          CHANNELS 3 Zrotation Xrotation Yrotation
          JOINT RightShoulder
          {
            OFFSET -13.5187 -1.1334 -5.0155
            CHANNELS 3 Zrotation Xrotation Yrotation
            JOINT RightElbow
            {
              OFFSET 0.0994 -28.0499 -0.2431
              CHANNELS 3 Zrotation Xrotation Yrotation
              JOINT RightWrist
              {
                OFFSET -0.0679 -23.3996 -0.1402
                CHANNELS 3 Zrotation Xrotation Yrotation
                JOINT RightFinger1
                {
                  OFFSET -0.7932 -9.0691 2.5189
                  CHANNELS 3 Zrotation Xrotation Yrotation
                  JOINT RightFinger11
                  {
                    OFFSET 0.8272 -3.3923 0.5977
                    CHANNELS 3 Zrotation Xrotation Yrotation
                    JOINT RightFinger12
                    {
                      OFFSET 0.565 -2.3158 0.4082
                      CHANNELS 3 Zrotation Xrotation Yrotation
                      End Site
                      {
                        OFFSET 0.4919 -1.6479 0.2673
                      }
                    }
                  }
                }
                JOINT RightFinger2
                {
                  OFFSET -0.916 -9.2044 0.2193
                  CHANNELS 3 Zrotation Xrotation Yrotation
                  JOINT RightFinger21
                  {
                    OFFSET -0.0117 -4.1944 -0.0248
                    CHANNELS 3 Zrotation Xrotation Yrotation
                    JOINT RightFinger22
                    {
                      OFFSET -0.0071 -2.3249 -0.0142
                      CHANNELS 3 Zrotation Xrotation Yrotation
                      End Site
                      {
                        OFFSET 0.1475 -2.0882 0.0028
                      }
                    }
                  }
                }
                JOINT RightFinger3
                {
                  OFFSET -0.6113 -8.7231 -2.0637
                  CHANNELS 3 Zrotation Xrotation Yrotation
                  JOINT RightFinger31
                  {
                    OFFSET 0.1927 -3.8059 -0.2383
                    CHANNELS 3 Zrotation Xrotation Yrotation
                    JOINT RightFinger32
                    {
                      OFFSET 0.1091 -2.1688 -0.1362
                      CHANNELS 3 Zrotation Xrotation Yrotation
                      End Site
                      {
                        OFFSET 0.2358 -1.9176 -0.0906
                      }
                    }
                  }
                }
                JOINT RightFinger4
                {
                  OFFSET 0.6151 -8.0947 -3.564
                  CHANNELS 3 Zrotation Xrotation Yrotation
                  JOINT RightFinger41
                  {
                    OFFSET 0.4882 -2.341 -0.6462
                    CHANNELS 3 Zrotation Xrotation Yrotation
                    JOINT RightFinger42
                    {
                      OFFSET 0.3574 -1.7166 -0.4742
                      CHANNELS 3 Zrotation Xrotation Yrotation
                      End Site
                      {
                        OFFSET 0.4187 -1.5237 -0.3496
                      }
                    }
                  }
                }
                JOINT RightFinger0
                {
                  OFFSET 1.4199 -1.8761 1.4221
                  CHANNELS 3 Zrotation Xrotation Yrotation
                  JOINT RightFinger01
                  {
                    OFFSET 1.1472 -3.4929 2.6336
                    CHANNELS 3 Zrotation Xrotation Yrotation
                    JOINT RightFinger02
                    {
                      OFFSET 0.8229 -2.3 1.6571
                      CHANNELS 3 Zrotation Xrotation Yrotation
                      End Site
                      {
                        OFFSET 0.5822 -1.6914 1.1582
                      }
                    }
                  }
                }
              }
            }
          }
        }
      }
    }
  }
  JOINT RightHip
  {
    OFFSET -9.412 3.9771 -0.7758
    CHANNELS 3 Zrotation Xrotation Yrotation
    JOINT RightKnee
    {
      OFFSET -0.7531 -40.938 0
      CHANNELS 3 Zrotation Xrotation Yrotation
      JOINT RightAnkle
      {
        OFFSET 0 -40.1986 0
        CHANNELS 3 Zrotation Xrotation Yrotation
        JOINT RightToe
        {
          OFFSET 0 -4.4182 9.239
          CHANNELS 3 Zrotation Xrotation Yrotation
          End Site
          {
            OFFSET 0 0 6.1981
          }
        }
      }
    }
  }
  JOINT LeftHip
  {
    OFFSET 9.4119 3.9773 -0.7758
    CHANNELS 3 Zrotation Xrotation Yrotation
    JOINT LeftKnee
    {
      OFFSET 0.7532 -40.9383 0
      CHANNELS 3 Zrotation Xrotation Yrotation
      JOINT LeftAnkle
      {
        OFFSET 0 -40.1986 0
        CHANNELS 3 Zrotation Xrotation Yrotation
        JOINT LeftToe
        {
          OFFSET 0 -4.4182 9.239
          CHANNELS 3 Zrotation Xrotation Yrotation
          End Site
          {
            OFFSET 0 0 6.1981
          }
        }
      }
    }
  }
}
MOTION
Frames:	6
Frame Time:	0.0333333
2.59288 3.80813 8.14332 -46.3817 -89.9994 0.617974 0.032224 -0.308892 -9.88353 0.0109414 -0.618726 -19.7674 0.0109435 -0.618733 -19.7674 1.04552 18.1866 -20.5534 20.2847 -10.4415 3.72395 -28.3861 -0.713085 -10.0462 42.1474 -36.9718 8.7371 -22.2325 -4.91096 -21.9774 -28.5229 -3.62396 -7.75947 -7.6832e-006 -6.24034e-006 -4.38852e-006 -1.02413e-006 -1.14888e-006 1.36392e-006 2.34836e-006 2.23212e-008 -1.95546e-007 -7.6832e-006 -6.24034e-006 -4.38852e-006 -0.0128604 0.00233445 8.95117e-005 -6.06193e-006 -4.31919e-006 -2.66324e-006 -7.6832e-006 -6.24034e-006 -4.38852e-006 -0.0160706 0.00300156 0.000864124 -9.30722e-006 -2.02953e-006 -6.11432e-006 -7.6832e-006 -6.24034e-006 -4.38852e-006 -0.0125104 0.0031101 0.00281391 -7.72706e-006 -3.12503e-006 -6.27416e-006 -7.6832e-006 -6.24034e-006 -4.38852e-006 -1.02413e-006 -1.14888e-006 1.36392e-006 2.34836e-006 2.23212e-008 -1.95546e-007 -22.0219 -5.75462 5.00536 -116.778 6.05914 -12.724 -71.6536 -9.58633 45.0475 6.88096 1.19669 -0.12751 3.97569e-015 -3.18055e-015 1.59028e-015 3.97569e-015 3.18055e-015 -7.95139e-016 -2.38542e-015 0 5.56597e-015 3.97569e-015 -3.18055e-015 1.59028e-015 0.0129422 0.00231911 -7.90373e-005 -3.18055e-015 -3.18055e-015 -7.95139e-016 3.97569e-015 -3.18055e-015 1.59028e-015 0.0163282 0.0030359 -0.00086882 -1.97332e-006 -3.35509e-006 -4.01345e-006 3.97569e-015 -3.18055e-015 1.59028e-015 0.014623 0.00369129 -0.0032779 -2.38542e-015 0 3.18055e-015 3.97569e-015 -3.18055e-015 1.59028e-015 3.97569e-015 3.18055e-015 -7.95139e-016 -2.38542e-015 0 5.56597e-015 -8.42201 -6.28479 -26.7618 11.1001 62.8858 -11.6634 -7.96274 17.477 -0.681316 1.48016e-006 3.65607e-008 -5.85855e-007 6.2353 -17.1002 -19.4758 -6.65804 15.0644 1.74867 8.69955 10.7376 1.15042 4.94647e-007 -5.06053e-007 -1.42123e-006 
2.59292 3.80794 8.1433 -46.9997 -89.9994 -0 0.0322286 -0.308885 -9.88354 0.0109421 -0.618714 -19.7674 0.0109443 -0.618736 -19.7674 0.994081 18.1892 -20.5402 20.1596 -10.4509 3.70053 -28.3861 -0.713083 -10.0462 42.1475 -36.9718 8.73712 -22.4195 -4.86484 -22.0023 -28.5229 -3.62393 -7.75946 1.25662e-006 -1.01073e-005 -7.19484e-007 -2.92839e-007 1.23719e-006 -2.53164e-006 -3.3612e-006 3.0437e-006 1.56258e-006 1.25662e-006 -1.01073e-005 -7.19484e-007 -0.0128346 0.00232797 9.17015e-005 -1.84778e-005 -7.10521e-007 -4.67304e-006 1.25662e-006 -1.01073e-005 -7.19484e-007 -0.0160342 0.00299421 0.000858492 3.65233e-006 -1.01387e-006 9.69339e-007 1.25662e-006 -1.01073e-005 -7.19484e-007 -0.0125123 0.00311851 0.00282041 -1.62598e-005 -3.51083e-006 -8.64268e-006 1.25662e-006 -1.01073e-005 -7.19484e-007 -2.92839e-007 1.23719e-006 -2.53164e-006 -3.3612e-006 3.0437e-006 1.56258e-006 -22.0219 -5.75462 5.00536 -116.778 6.05905 -12.724 -71.6537 -9.5869 45.046 6.88095 1.19691 -0.125742 7.95139e-016 -3.18055e-015 -9.54166e-015 -2.38542e-015 0 6.36111e-015 -4.77083e-015 3.18055e-015 1.59028e-015 7.95139e-016 -3.18055e-015 -9.54166e-015 0.0129451 0.00230865 -8.28123e-005 1.59028e-015 -6.36111e-015 4.77083e-015 7.95139e-016 -3.18055e-015 -9.54166e-015 0.0163364 0.00303934 -0.000872442 -8.74653e-015 0 7.95139e-015 7.95139e-016 -3.18055e-015 -9.54166e-015 0.014594 0.00368106 -0.00326675 -1.42335e-006 -6.75544e-006 7.84923e-006 7.95139e-016 -3.18055e-015 -9.54166e-015 -2.38542e-015 0 6.36111e-015 -4.77083e-015 3.18055e-015 1.59028e-015 -8.42212 -6.2851 -26.7617 11.1001 62.886 -11.6635 -7.96268 17.4771 -0.681296 2.64804e-007 1.9925e-009 8.01838e-007 6.27571 -17.0851 -19.3247 -6.65775 15.0599 1.74788 8.69736 10.7404 1.15024 -2.87232e-006 7.93624e-006 1.1216e-006 
2.59296 3.80775 8.14327 -46.3817 -89.9994 0.617974 0.032224 -0.308892 -9.88353 0.0109414 -0.618726 -19.7674 0.0109435 -0.618733 -19.7674 0.942638 18.1919 -20.527 20.0344 -10.4602 3.67709 -28.3861 -0.713085 -10.0462 42.1474 -36.9718 8.7371 -22.6063 -4.8186 -22.0269 -28.5229 -3.62396 -7.75947 9.84287e-006 -2.13853e-006 3.53391e-006 7.95139e-016 -3.18055e-015 1.19271e-015 -1.98626e-031 -9.54166e-015 -1.19271e-015 9.84287e-006 -2.13853e-006 3.53391e-006 -0.0127622 0.00232047 8.59085e-005 -6.75868e-015 -3.18055e-015 3.97569e-015 9.84287e-006 -2.13853e-006 3.53391e-006 -0.0160172 0.00299434 0.000855811 1.19271e-015 0 3.18055e-015 9.84287e-006 -2.13853e-006 3.53391e-006 -0.0126052 0.0031277 0.00282319 1.39149e-015 -6.36111e-015 3.97569e-016 9.84287e-006 -2.13853e-006 3.53391e-006 7.95139e-016 -3.18055e-015 1.19271e-015 -1.98626e-031 -9.54166e-015 -1.19271e-015 -22.0219 -5.75462 5.00536 -116.778 6.05914 -12.724 -71.6537 -9.58638 45.0473 6.88099 1.19668 -0.127431 -4.77083e-015 -6.36111e-015 4.77083e-015 -3.18055e-015 -3.18055e-015 7.95139e-015 -7.95139e-016 -6.36111e-015 -7.95139e-016 -4.77083e-015 -6.36111e-015 4.77083e-015 0.0129432 0.0023099 -8.67399e-005 1.59028e-015 3.18055e-015 -1.59028e-015 -4.77083e-015 -6.36111e-015 4.77083e-015 0.0163286 0.00304441 -0.000879699 7.15625e-015 -6.36111e-015 -2.38542e-015 -4.77083e-015 -6.36111e-015 4.77083e-015 0.0146254 0.00369342 -0.0032794 2.38542e-015 -3.18055e-015 -0 -4.77083e-015 -6.36111e-015 4.77083e-015 -3.18055e-015 -3.18055e-015 7.95139e-015 -7.95139e-016 -6.36111e-015 -7.95139e-016 -8.42233 -6.2852 -26.7617 11.1002 62.8861 -11.6634 -7.96262 17.4772 -0.681256 2.78299e-015 9.54166e-015 -0 6.31586 -17.0712 -19.1736 -6.65768 15.0568 1.74726 8.69515 10.7432 1.15007 6.16514e-006 9.05933e-006 3.35621e-006 
2.59299 3.80756 8.14325 -46.3817 -89.9994 0.617974 0.032224 -0.308892 -9.88353 0.0109414 -0.618726 -19.7674 0.0109435 -0.618733 -19.7674 0.891198 18.1946 -20.5138 19.9091 -10.4694 3.65363 -28.3861 -0.713085 -10.0462 42.1474 -36.9718 8.7371 -22.7932 -4.77228 -22.0514 -28.523 -3.62395 -7.75947 -1.19271e-015 6.36111e-015 3.57812e-015 -1.59028e-015 6.36111e-015 1.19271e-015 -7.95139e-016 6.36111e-015 3.57812e-015 -1.19271e-015 6.36111e-015 3.57812e-015 -0.0128446 0.0023285 8.45147e-005 4.37326e-015 6.36111e-015 2.78299e-015 -1.19271e-015 6.36111e-015 3.57812e-015 -0.0160318 0.00299441 0.000859139 -1.02012e-006 -8.07955e-007 1.36632e-006 -1.19271e-015 6.36111e-015 3.57812e-015 -0.0125989 0.00312912 0.00283723 -7.95139e-016 -6.36111e-015 -1.98785e-015 -1.19271e-015 6.36111e-015 3.57812e-015 -1.59028e-015 6.36111e-015 1.19271e-015 -7.95139e-016 6.36111e-015 3.57812e-015 -22.0219 -5.75462 5.00536 -116.778 6.05914 -12.724 -71.6536 -9.58633 45.0475 6.88096 1.19669 -0.12751 3.97569e-015 -3.18055e-015 1.59028e-015 3.97569e-015 3.18055e-015 -7.95139e-016 -2.38542e-015 0 5.56597e-015 3.97569e-015 -3.18055e-015 1.59028e-015 0.0129422 0.00231911 -7.90373e-005 -3.18055e-015 -3.18055e-015 -7.95139e-016 3.97569e-015 -3.18055e-015 1.59028e-015 0.0163282 0.0030359 -0.00086882 -1.97332e-006 -3.35509e-006 -4.01345e-006 3.97569e-015 -3.18055e-015 1.59028e-015 0.014623 0.00369129 -0.0032779 -2.38542e-015 0 3.18055e-015 3.97569e-015 -3.18055e-015 1.59028e-015 3.97569e-015 3.18055e-015 -7.95139e-016 -2.38542e-015 0 5.56597e-015 -8.42242 -6.28535 -26.7617 11.1002 62.8862 -11.6635 -7.96257 17.4773 -0.68124 -2.64804e-007 -1.99251e-009 -8.01838e-007 6.35624 -17.0553 -19.0224 -6.6573 15.0519 1.74639 8.69301 10.746 1.1499 1.30736e-006 -8.32665e-007 -1.24973e-006 
2.59303 3.80737 8.14322 -46.3817 -89.9994 0.617974 0.032224 -0.308892 -9.88353 0.0109414 -0.618726 -19.7674 0.0109435 -0.618733 -19.7674 0.839758 18.1973 -20.5006 19.7839 -10.4787 3.63014 -28.3861 -0.713085 -10.0462 42.1474 -36.9718 8.73712 -22.9801 -4.72592 -22.0757 -28.523 -3.62396 -7.75946 1.09971e-007 6.53317e-006 1.88833e-006 3.97569e-015 -3.18055e-015 4.37326e-015 -5.96354e-015 0 2.78299e-015 1.09971e-007 6.53317e-006 1.88833e-006 -0.0128199 0.00231939 8.16469e-005 1.22216e-005 8.94258e-007 3.3171e-006 1.09971e-007 6.53317e-006 1.88833e-006 -0.0160508 0.00299493 0.000852096 -1.98785e-015 -6.36111e-015 -3.18055e-015 1.09971e-007 6.53317e-006 1.88833e-006 -0.0126474 0.00312908 0.00283987 2.76871e-006 5.47703e-007 3.58384e-007 1.09971e-007 6.53317e-006 1.88833e-006 3.97569e-015 -3.18055e-015 4.37326e-015 -5.96354e-015 0 2.78299e-015 -22.0219 -5.75462 5.00536 -116.778 6.0591 -12.724 -71.6537 -9.58633 45.0476 6.88097 1.19669 -0.127591 -7.95139e-016 6.36111e-015 -7.95139e-016 3.18055e-015 9.54166e-015 -0 7.95139e-016 6.36111e-015 -3.18055e-015 -7.95139e-016 6.36111e-015 -7.95139e-016 0.0129432 0.00232348 -8.40486e-005 -1.19271e-014 -3.18055e-015 7.95139e-015 -7.95139e-016 6.36111e-015 -7.95139e-016 0.0163282 0.00303005 -0.000871493 3.97569e-015 -3.18055e-015 -0 -7.95139e-016 6.36111e-015 -7.95139e-016 0.0146213 0.00368156 -0.00327329 -7.06225e-031 -6.36111e-015 -6.36111e-015 -7.95139e-016 6.36111e-015 -7.95139e-016 3.18055e-015 9.54166e-015 -0 7.95139e-016 6.36111e-015 -3.18055e-015 -8.42258 -6.28566 -26.7617 11.1002 62.8864 -11.6635 -7.96251 17.4774 -0.681227 -1.33319e-006 1.46978e-006 -5.35311e-008 6.39633 -17.0412 -18.8713 -6.65727 15.0487 1.74579 8.69082 10.7489 1.14972 1.90475e-006 -7.119e-006 -2.20875e-006 
2.59307 3.80717 8.1432 -46.3817 -89.9994 0.617974 0.032224 -0.308892 -9.88353 0.0109414 -0.618726 -19.7674 0.0109435 -0.618733 -19.7674 0.788315 18.2 -20.4874 19.6587 -10.4878 3.60664 -28.3861 -0.713085 -10.0462 42.1474 -36.9718 8.73712 -23.167 -4.67939 -22.0999 -28.523 -3.62398 -7.75947 -7.95139e-016 9.54166e-015 -5.96354e-015 1.98785e-015 6.36111e-015 2.38542e-015 1.59028e-015 9.54166e-015 -3.97569e-016 -7.95139e-016 9.54166e-015 -5.96354e-015 -0.0128185 0.00233167 8.46532e-005 7.95139e-016 0 1.98785e-015 -7.95139e-016 9.54166e-015 -5.96354e-015 -0.0160744 0.00299985 0.000857498 -1.19271e-014 6.36111e-015 3.97569e-016 -7.95139e-016 9.54166e-015 -5.96354e-015 -0.0126158 0.00312672 0.00283632 7.95139e-016 6.36111e-015 -0 -7.95139e-016 9.54166e-015 -5.96354e-015 1.98785e-015 6.36111e-015 2.38542e-015 1.59028e-015 9.54166e-015 -3.97569e-016 -22.0219 -5.75462 5.00536 -116.778 6.05914 -12.724 -71.6536 -9.58636 45.0474 6.88099 1.19668 -0.127512 -2.64377e-006 -2.805e-006 6.93451e-006 2.28969e-007 -1.04289e-006 -2.75602e-006 7.95139e-015 3.18055e-015 -3.97569e-015 -2.64377e-006 -2.805e-006 6.93451e-006 0.0129469 0.00231668 -8.19631e-005 -8.74653e-015 -3.18055e-015 2.3059e-014 -2.64377e-006 -2.805e-006 6.93451e-006 0.0163552 0.00304055 -0.000872725 1.76556e-031 6.36111e-015 -1.59028e-015 -2.64377e-006 -2.805e-006 6.93451e-006 0.0145916 0.00368101 -0.00326247 -2.18532e-006 -1.11705e-006 1.42218e-006 -2.64377e-006 -2.805e-006 6.93451e-006 2.28969e-007 -1.04289e-006 -2.75602e-006 7.95139e-015 3.18055e-015 -3.97569e-015 -8.42276 -6.28554 -26.7617 11.1004 62.8863 -11.6635 -7.96247 17.4774 -0.681208 -5.53034e-026 1.99252e-009 1.59028e-015 6.43649 -17.0258 -18.7201 -6.65696 15.0445 1.74501 8.68862 10.7516 1.14957 1.13056e-005 3.29913e-005 -1.85314e-006 
